<?xml version="1.0" encoding="utf-8"?>
<!-- Generator: Adobe Illustrator 15.1.0, SVG Export Plug-In . SVG Version: 6.00 Build 0)  -->
<!DOCTYPE svg PUBLIC "-//W3C//DTD SVG 1.1//EN" "http://www.w3.org/Graphics/SVG/1.1/DTD/svg11.dtd">
<svg version="1.1" id="Layer_1" xmlns="http://www.w3.org/2000/svg" xmlns:xlink="http://www.w3.org/1999/xlink" x="0px" y="0px"
	 width="364px" height="93px" viewBox="0 9.5 364 93" enable-background="new 0 9.5 364 93" xml:space="preserve">
<g>
	<path fill="#FFFFFF" d="M110.674,37.511c-6.452,0-9.677,2.43-9.677,7.29c0,2.709,0.742,4.57,2.226,5.581
		c1.484,1.011,4.494,2.022,9.032,3.032c4.537,1.011,7.752,2.322,9.645,3.936c1.892,1.612,2.839,4.269,2.839,7.967
		c0,9.161-4.753,13.741-14.258,13.741c-3.14,0-7.076-0.365-11.806-1.097l-2.323-0.322l0.516-4.129
		c5.849,0.773,10.3,1.161,13.354,1.161c6.365,0,9.548-2.988,9.548-8.968c0-2.408-0.699-4.139-2.096-5.193
		c-1.398-1.054-4.011-1.945-7.838-2.677c-5.032-1.075-8.603-2.462-10.709-4.162c-2.108-1.698-3.162-4.548-3.162-8.548
		c0-8,4.795-12,14.387-12c3.139,0,6.903,0.323,11.29,0.968l2.193,0.323l-0.451,4.193C117.405,37.876,113.168,37.511,110.674,37.511z
		"/>
	<path fill="#FFFFFF" d="M148.609,50.414h-10.258v15.418c0,3.7,0.269,6.129,0.807,7.291c0.537,1.16,1.816,1.741,3.838,1.741
		l5.742-0.387l0.322,4c-2.882,0.473-5.075,0.709-6.58,0.709c-3.355,0-5.678-0.815-6.968-2.451c-1.29-1.634-1.936-4.752-1.936-9.354
		V50.414h-4.581V46.22h4.581V36.35h4.774v9.871h10.258V50.414z"/>
	<path fill="#FFFFFF" d="M153.125,62.284c0-5.892,1.053-10.15,3.161-12.774c2.106-2.623,5.666-3.935,10.677-3.935
		s8.559,1.312,10.646,3.935c2.085,2.624,3.129,6.882,3.129,12.774c0,5.893-0.99,10.172-2.968,12.838
		c-1.979,2.668-5.592,4.001-10.839,4.001s-8.86-1.333-10.839-4.001C154.113,72.456,153.125,68.177,153.125,62.284z M158.092,62.188
		c0,4.709,0.57,8.011,1.711,9.903c1.139,1.893,3.525,2.838,7.16,2.838s6.01-0.936,7.129-2.806c1.117-1.871,1.678-5.172,1.678-9.903
		c0-4.731-0.624-7.989-1.871-9.774c-1.248-1.784-3.559-2.677-6.936-2.677s-5.699,0.893-6.967,2.677
		C158.727,54.231,158.092,57.478,158.092,62.188z"/>
	<path fill="#FFFFFF" d="M188.608,78.478V46.22h4.773v4.387c3.742-2.581,7.678-4.279,11.806-5.096v4.903
		c-1.806,0.345-3.688,0.882-5.645,1.613c-1.957,0.732-3.451,1.377-4.483,1.936l-1.613,0.839v23.677H188.608z"/>
	<path fill="#FFFFFF" d="M207.897,46.22h4.838l8.064,28.063h2.13l8.129-28.063h4.838L222.478,92.8h-4.839l4.193-14.322h-4.773
		L207.897,46.22z"/>
	<path fill="#FFFFFF" d="M242.928,33.833h16.193c4.43,0,7.752,0.914,9.968,2.742c2.214,1.829,3.322,4.699,3.322,8.613
		c0,2.796-0.483,4.979-1.452,6.548c-0.968,1.57-2.397,2.806-4.29,3.709c4.73,1.635,7.097,5.139,7.097,10.515
		c0,4.475-1.184,7.678-3.549,9.613s-5.784,2.903-10.257,2.903h-17.032V33.833z M258.928,38.22h-11.033v15.419h11.484
		c2.753,0,4.764-0.655,6.032-1.968c1.269-1.311,1.903-3.29,1.903-5.935c0-2.646-0.677-4.559-2.032-5.742
		C263.928,38.812,261.809,38.22,258.928,38.22z M259.444,57.962h-11.55V74.09h11.872c2.924,0,5.149-0.612,6.677-1.839
		c1.526-1.226,2.29-3.387,2.29-6.483c0-1.634-0.312-3.01-0.936-4.129c-0.623-1.117-1.452-1.913-2.483-2.387
		C263.421,58.393,261.465,57.962,259.444,57.962z"/>
	<path fill="#FFFFFF" d="M282.216,78.478V32.156h4.839v46.322H282.216z"/>
	<path fill="#FFFFFF" d="M295.312,62.284c0-5.892,1.055-10.15,3.162-12.774c2.106-2.623,5.666-3.935,10.677-3.935
		c5.01,0,8.559,1.312,10.645,3.935c2.087,2.624,3.129,6.882,3.129,12.774c0,5.893-0.988,10.172-2.967,12.838
		c-1.979,2.668-5.592,4.001-10.838,4.001c-5.248,0-8.861-1.333-10.839-4.001C296.301,72.456,295.312,68.177,295.312,62.284z
		 M300.28,62.188c0,4.709,0.569,8.011,1.709,9.903s3.526,2.838,7.161,2.838c3.634,0,6.011-0.936,7.129-2.806
		c1.118-1.871,1.678-5.172,1.678-9.903c0-4.731-0.625-7.989-1.871-9.774c-1.248-1.784-3.56-2.677-6.936-2.677
		s-5.699,0.893-6.968,2.677C300.914,54.231,300.28,57.478,300.28,62.188z"/>
	<path fill="#FFFFFF" d="M335.634,78.478h-4.838V32.156h4.838V59.51l5.032-0.258l9.225-13.032h5.484l-10.516,14.838l10.967,17.419
		h-5.483l-9.613-14.967l-5.096,0.193V78.478z"/>
</g>
<polygon fill="#82D3D6" points="4.594,34.531 40.266,16.955 77.501,34.531 77.501,76.713 42.479,93.509 42.609,53.322 "/>
<polygon fill="#D7EBEA" points="4.594,34.531 4.594,76.312 42.479,93.509 42.609,53.322 "/>
<polygon fill="#09B3AF" points="42.609,53.322 77.501,34.531 77.501,76.713 42.479,93.509 "/>
</svg>
